<svg xmlns="http://www.w3.org/2000/svg" width="22.009" height="14"><defs><linearGradient id="a" y1=".5" x2="1" y2=".5" gradientUnits="objectBoundingBox"><stop offset="0" stop-color="#ff7166"/><stop offset="1" stop-color="#f93"/></linearGradient></defs><path d="M14.289 13.766a.857.857 0 0 1-.044-1.237L19.546 7l-5.3-5.529a.857.857 0 0 1 .043-1.235.918.918 0 0 1 1.274.043L22.008 7l-6.446 6.721a.922.922 0 0 1-1.274.044zm-7.006 0a.858.858 0 0 1-.043-1.237L12.541 7l-5.3-5.529A.857.857 0 0 1 7.282.236a.918.918 0 0 1 1.274.043L15 7l-6.444 6.722A.909.909 0 0 1 7.9 14a.919.919 0 0 1-.618-.234zm-7 0a.857.857 0 0 1-.044-1.237L5.544 7 .242 1.472A.857.857 0 0 1 .286.236.918.918 0 0 1 1.56.279L8.006 7 1.56 13.722a.922.922 0 0 1-1.274.044z" fill="url(#a)"/></svg>