<svg xmlns="http://www.w3.org/2000/svg" width="17" height="16.921"><path fill="none" d="M0 0H16.921V16.921H0z"/><path d="M15.26 4.992c.01.15.01.3.01.451a9.856 9.856 0 0 1-9.924 9.924A9.874 9.874 0 0 1 0 13.801a7.1 7.1 0 0 0 .83.05 7 7 0 0 0 4.332-1.5A3.492 3.492 0 0 1 1.9 9.933a3.476 3.476 0 0 0 1.575-.06A3.488 3.488 0 0 1 .68 6.456V6.41a3.466 3.466 0 0 0 1.583.436A3.492 3.492 0 0 1 1.184 2.19a9.9 9.9 0 0 0 7.188 3.643 3.491 3.491 0 0 1 5.943-3.177 7 7 0 0 0 2.215-.85A3.5 3.5 0 0 1 15 3.735a6.936 6.936 0 0 0 2-.549 7.086 7.086 0 0 1-1.74 1.806z" fill="#fff"/></svg>