<svg xmlns="http://www.w3.org/2000/svg" width="24" height="24"><defs><linearGradient id="a" y1="1" x2="1" gradientUnits="objectBoundingBox"><stop offset="0" stop-color="#f4523c"/><stop offset="1" stop-color="#ffa042"/></linearGradient></defs><path d="M951.455 555.706v-.021a.939.939 0 0 0-.762-.879c-5.991-1.33-9.022-4.362-10.35-10.357a.94.94 0 0 0-.87-.762h-.017a.938.938 0 0 0-.88.763c-1.329 6-4.361 9.029-10.358 10.358a.938.938 0 0 0-.763.88v.017a.94.94 0 0 0 .762.87c5.994 1.329 9.027 4.359 10.357 10.35a.939.939 0 0 0 .88.763h.021a.94.94 0 0 0 .87-.762c1.33-5.989 4.36-9.019 10.349-10.349a.941.941 0 0 0 .761-.871z" transform="translate(-927.455 -543.686)" fill="url(#a)"/></svg>