<svg height="18.001" width="23" xmlns="http://www.w3.org/2000/svg"><g fill="#fff"><path d="m15.496 17.042-4.937-3.451-.13-.09h-6.427a3.505 3.505 0 0 1 -3.502-3.503v-6a3.503 3.503 0 0 1 3.501-3.498h15.001a3.502 3.502 0 0 1 3.498 3.498v6.001c0 1.93-1.57 3.501-3.498 3.501h-3.506z"/><path d="m14.996 16.082v-3.082h4.006a3.003 3.003 0 0 0 2.998-3v-6.003a3.001 3.001 0 0 0 -2.998-2.997h-15.001a3.003 3.003 0 0 0 -3.001 2.998v6.001a3.005 3.005 0 0 0 3.001 3.001h6.586l.259.18zm1 1.92-5.724-4.002h-6.271a4.003 4.003 0 0 1 -4.001-4v-6.003a4 4 0 0 1 4.001-3.997h15.001a3.998 3.998 0 0 1 3.998 3.998v6.001a4 4 0 0 1 -3.998 4.001h-3.006v4.001z" fill="#ff7e10"/></g><g fill="#ff7e10"><circle cx="6.996" cy="6.999" r="1"/><circle cx="11.996" cy="6.999" r="1"/><circle cx="16.996" cy="6.999" r="1"/></g></svg>