<?xml version="1.0" standalone="no"?>
<!DOCTYPE svg PUBLIC "-//W3C//DTD SVG 20010904//EN"
 "http://www.w3.org/TR/2001/REC-SVG-20010904/DTD/svg10.dtd">
<svg version="1.0" xmlns="http://www.w3.org/2000/svg"
 width="512.000000pt" height="512.000000pt" viewBox="0 0 512.000000 512.000000"
 preserveAspectRatio="xMidYMid meet">
<metadata>
Created by potrace 1.14, written by Peter Selinger 2001-2017
</metadata>
<g transform="translate(0.000000,512.000000) scale(0.100000,-0.100000)"
fill="#000000" stroke="none">
<path d="M2293 4218 c-206 -17 -400 -134 -502 -302 -152 -252 -146 -655 13
-894 120 -181 337 -292 571 -292 419 0 694 298 695 751 0 300 -128 543 -346
656 -137 71 -264 95 -431 81z m220 -331 c133 -56 207 -230 194 -457 -14 -244
-124 -380 -316 -388 -221 -10 -351 154 -351 443 1 234 103 396 269 425 63 11
147 2 204 -23z"/>
<path d="M617 4204 c-4 -4 -7 -333 -7 -731 l0 -723 480 0 480 0 0 145 0 145
-300 0 -300 0 -2 583 -3 582 -171 3 c-93 1 -173 -1 -177 -4z"/>
<path d="M2330 2649 c-257 -21 -470 -179 -563 -417 -85 -220 -76 -505 23 -709
57 -117 171 -234 280 -286 116 -57 186 -72 335 -72 152 0 207 11 324 67 156
74 270 221 306 393 9 42 15 126 15 213 l0 142 -312 -2 -313 -3 -3 -127 -3
-128 146 0 145 0 0 -27 c0 -35 -34 -110 -63 -141 -62 -66 -212 -100 -325 -72
-153 36 -239 171 -250 387 -8 173 20 279 95 371 73 89 221 129 346 93 59 -17
130 -78 151 -131 l16 -40 176 0 177 0 -7 48 c-10 78 -71 187 -145 261 -137
137 -326 198 -551 180z"/>
<path d="M3853 2648 c-265 -22 -488 -198 -568 -449 -51 -161 -57 -354 -15
-526 23 -97 65 -185 127 -266 148 -192 427 -286 691 -231 342 71 542 340 542
730 0 483 -311 781 -777 742z m219 -330 c134 -57 207 -227 195 -452 -10 -183
-66 -298 -177 -360 -51 -29 -62 -31 -150 -31 -111 0 -163 19 -225 80 -116 116
-150 387 -75 589 64 170 257 248 432 174z"/>
</g>
</svg>
